<?xml version="1.0" standalone="no"?>
<!DOCTYPE svg PUBLIC "-//W3C//DTD SVG 20010904//EN"
 "http://www.w3.org/TR/2001/REC-SVG-20010904/DTD/svg10.dtd">
<svg version="1.0" xmlns="http://www.w3.org/2000/svg"
 width="200.000000pt" height="200.000000pt" viewBox="0 0 200.000000 200.000000"
 preserveAspectRatio="xMidYMid meet">
<metadata>
Created by potrace 1.14, written by Peter Selinger 2001-2017
</metadata>
<g transform="translate(0.000000,200.000000) scale(0.100000,-0.100000)"
fill="#000000" stroke="none">
<path d="M928 1939 c-205 -30 -423 -173 -516 -338 -61 -110 -105 -268 -77
-277 6 -2 32 42 59 97 52 105 127 194 207 245 37 23 125 56 185 68 l30 7 -10
-60 c-5 -34 -7 -63 -4 -67 3 -3 23 5 45 18 47 30 124 62 181 78 47 12 182 22
182 13 0 -3 -9 -20 -20 -39 -12 -18 -17 -35 -13 -37 5 -3 36 -13 71 -21 110
-29 199 -83 296 -181 34 -34 73 -79 86 -99 43 -62 66 -35 38 45 -36 104 -130
221 -238 297 -36 25 -67 48 -70 50 -3 2 6 13 20 24 63 50 72 60 62 70 -16 16
-95 22 -269 23 -90 0 -163 2 -163 4 0 2 11 19 26 38 41 54 21 61 -108 42z"/>
<path d="M279 1243 c-66 -35 -75 -56 -61 -149 10 -64 16 -79 42 -100 25 -22
29 -31 24 -57 -3 -17 -10 -37 -16 -44 -14 -17 6 -148 27 -180 18 -27 76 -46
130 -41 l40 3 -1 50 c0 28 -4 73 -8 100 -4 28 -9 66 -12 85 -14 96 -45 269
-54 302 -17 59 -44 66 -111 31z m28 -205 c28 -32 35 -46 40 -83 5 -35 -19
-105 -36 -105 -14 0 -14 10 3 57 13 36 12 44 -4 80 -10 22 -25 43 -34 46 -9 4
-16 11 -16 17 0 18 26 11 47 -12z"/>
<path d="M1658 1259 c-18 -10 -32 -51 -48 -141 -17 -96 -20 -112 -26 -158 -3
-25 -8 -53 -10 -64 -9 -49 -18 -135 -19 -176 l0 -45 40 -3 c49 -4 106 12 127
35 9 10 19 36 22 58 3 22 9 57 12 78 4 23 1 43 -6 52 -23 28 -19 67 10 97 31
30 38 53 46 137 5 48 3 59 -16 79 -17 18 -101 64 -113 62 -1 0 -10 -5 -19 -11z
m95 -214 c-3 -8 -9 -15 -14 -15 -5 0 -16 -14 -25 -31 -16 -31 -15 -76 1 -128
14 -43 -19 -18 -34 26 -18 50 -5 103 34 146 26 28 49 29 38 2z"/>
<path d="M670 1229 c-19 -4 -64 -21 -100 -37 -62 -29 -64 -31 -37 -37 15 -4
65 -4 110 0 103 9 88 9 182 0 103 -10 163 -11 171 -3 3 4 4 15 0 24 -5 13 -9
14 -20 5 -16 -13 -49 -7 -115 21 -56 24 -145 36 -191 27z"/>
<path d="M1165 1205 c-67 -24 -97 -30 -110 -23 -25 15 -41 -5 -20 -26 10 -10
27 -14 43 -12 117 20 245 24 327 11 22 -4 56 -3 75 3 l35 9 -25 11 c-14 5 -47
20 -73 32 -73 35 -142 33 -252 -5z"/>
<path d="M550 1126 c-72 -11 -75 -12 -78 -39 -2 -20 4 -35 21 -51 17 -16 26
-37 31 -80 9 -78 27 -119 67 -147 31 -22 44 -24 135 -24 67 0 106 4 116 13 9
7 24 10 34 6 13 -4 15 -3 6 3 -9 7 -6 15 14 34 28 26 67 97 78 141 4 18 15 30
31 34 31 8 52 -8 60 -46 3 -15 22 -54 41 -85 19 -32 34 -62 34 -67 0 -5 4 -7
9 -4 4 3 25 -4 47 -14 28 -15 58 -20 111 -20 78 0 124 14 161 49 25 24 29 16
7 -13 -18 -23 -20 -40 -4 -30 32 20 -95 -166 -133 -194 -9 -7 -15 -21 -13 -31
19 -101 13 -114 -18 -35 -17 44 -93 126 -139 150 -16 8 -28 12 -28 9 0 -3 -6
-1 -12 5 -7 5 -24 18 -37 29 l-25 18 42 27 c42 26 53 39 30 35 -7 -1 -21 1
-31 6 -11 4 -27 1 -44 -11 -30 -19 -73 -27 -73 -13 0 20 -50 29 -82 16 l-31
-13 32 -21 c39 -24 42 -20 -70 -103 -36 -27 -72 -62 -80 -77 -8 -16 -20 -34
-26 -41 -7 -7 -14 -18 -14 -23 -1 -5 -2 -13 -3 -18 -4 -29 -16 -18 -16 15 0
29 -7 47 -28 69 -42 46 -85 106 -111 154 -18 35 -20 43 -7 38 14 -6 14 -2 -3
31 -27 55 -40 101 -44 156 -2 27 -8 51 -15 54 -18 6 -16 -191 3 -265 8 -32 16
-70 19 -86 6 -32 7 -37 41 -150 17 -55 34 -91 45 -97 10 -6 22 -20 25 -32 19
-61 155 -257 155 -223 0 13 9 9 39 -18 52 -47 98 -71 104 -54 3 8 12 5 29 -11
22 -20 26 -21 32 -7 3 9 6 35 6 58 0 31 3 38 10 27 6 -9 7 -46 4 -88 l-7 -72
33 30 c17 16 60 44 95 61 35 17 79 46 99 64 21 19 39 29 42 23 11 -17 111 150
140 232 15 41 35 82 44 90 15 13 52 124 64 190 2 14 9 45 15 70 6 25 10 95 10
155 l-1 110 -14 -55 -13 -55 4 50 c3 34 11 55 25 67 23 18 25 44 7 73 -9 16
-26 21 -77 25 -118 9 -254 1 -343 -18 -96 -22 -151 -21 -242 3 -75 20 -236 25
-335 11z m526 -521 c20 -8 46 -25 58 -38 12 -12 33 -31 48 -41 22 -17 26 -26
24 -70 -1 -46 -4 -52 -36 -74 -36 -24 -86 -25 -101 -1 -3 6 -17 9 -30 8 -13
-2 -30 0 -37 5 -7 4 -11 4 -10 -1 2 -4 0 -9 -4 -11 -82 -33 -82 -33 -115 -14
-34 19 -55 67 -48 108 6 40 22 74 33 74 5 0 19 10 32 23 49 45 123 59 186 32z"/>
<path d="M159 1078 c-18 -25 -25 -49 -27 -104 -5 -81 9 -117 65 -171 53 -52
63 -42 43 42 -7 30 -6 43 6 56 21 23 17 57 -11 83 -21 19 -27 37 -39 103 -4
26 -15 23 -37 -9z m71 -144 c0 -16 -36 -19 -45 -4 -4 6 -1 17 5 26 14 16 40 2
40 -22z"/>
<path d="M1825 1090 c-4 -11 -8 -34 -10 -51 -3 -17 -16 -42 -30 -55 -28 -26
-32 -50 -11 -79 7 -11 12 -29 10 -40 -12 -65 -15 -95 -8 -95 20 0 74 54 93 93
35 73 23 198 -23 236 -12 10 -16 8 -21 -9z m11 -159 c-9 -14 -33 -14 -41 -1
-4 6 -1 18 6 26 11 13 14 13 27 0 8 -8 11 -19 8 -25z"/>
</g>
</svg>
